# xmcd CD database file
#
# Track frame offsets:
#	150
#	22949
#	47814
#	65731
#	91972
#	110562
#	129169
#	151047
#	172242
#	198950
#	230127
#
# Disc length: 3383 seconds
#
# Revision: 0
# Processed by: cddbd v1.5.2PL0 Copyright (c) Steve Scherf et al.
# Submitted via: CDex 1.70beta2
#
DISCID=8f0d350b
DTITLE=Coyote Bill - Coyote Bill
DYEAR=2012
DGENRE=Jazz
TTITLE0=La meute
TTITLE1=Sons of Newton
TTITLE2=Classique chariot #3
TTITLE3=Therese
TTITLE4=L'helicoptere
TTITLE5=Les martiens
TTITLE6=Sunshine
TTITLE7=Minou, gare au loup...
TTITLE8=Air Transfat
TTITLE9=Hippocampe
TTITLE10=Ouaouaron
EXTD=YEAR: 2012
EXTT0=
EXTT1=
EXTT2=
EXTT3=
EXTT4=
EXTT5=
EXTT6=
EXTT7=
EXTT8=
EXTT9=
EXTT10=
PLAYORDER=
